<svg width="30" height="30" viewBox="0 0 30 30" fill="none" xmlns="http://www.w3.org/2000/svg">
<g clip-path="url(#clip0)">
<path fill-rule="evenodd" clip-rule="evenodd" d="M28.125 7.5H1.875V22.5H28.125V7.5ZM1.875 5.625C1.37772 5.625 0.900806 5.82254 0.549175 6.17417C0.197544 6.52581 0 7.00272 0 7.5L0 22.5C0 22.9973 0.197544 23.4742 0.549175 23.8258C0.900806 24.1775 1.37772 24.375 1.875 24.375H28.125C28.6223 24.375 29.0992 24.1775 29.4508 23.8258C29.8025 23.4742 30 22.9973 30 22.5V7.5C30 7.00272 29.8025 6.52581 29.4508 6.17417C29.0992 5.82254 28.6223 5.625 28.125 5.625H1.875Z" fill="#006C39"/>
<path d="M24.375 7.5C24.375 8.49456 24.7701 9.44839 25.4734 10.1517C26.1766 10.8549 27.1304 11.25 28.125 11.25V7.5H24.375ZM5.625 7.5C5.625 8.49456 5.22991 9.44839 4.52665 10.1517C3.82339 10.8549 2.86956 11.25 1.875 11.25V7.5H5.625ZM24.375 22.5C24.375 21.5054 24.7701 20.5516 25.4734 19.8484C26.1766 19.1451 27.1304 18.75 28.125 18.75V22.5H24.375ZM5.625 22.5C5.625 21.5054 5.22991 20.5516 4.52665 19.8484C3.82339 19.1451 2.86956 18.75 1.875 18.75V22.5H5.625ZM18.75 15C18.75 15.9946 18.3549 16.9484 17.6516 17.6516C16.9484 18.3549 15.9946 18.75 15 18.75C14.0054 18.75 13.0516 18.3549 12.3483 17.6516C11.6451 16.9484 11.25 15.9946 11.25 15C11.25 14.0054 11.6451 13.0516 12.3483 12.3483C13.0516 11.6451 14.0054 11.25 15 11.25C15.9946 11.25 16.9484 11.6451 17.6516 12.3483C18.3549 13.0516 18.75 14.0054 18.75 15Z" fill="#006C39"/>
</g>
<defs>
<clipPath id="clip0">
<rect width="30" height="30" fill="white"/>
</clipPath>
</defs>
</svg>
